<?xml version="1.0" encoding="UTF-8"?>
<svg viewBox="0 0 238.69511 109.90794" xmlns="http://www.w3.org/2000/svg">
 <defs>
  <linearGradient id="c" x1="260.72" x2="256.67" y1="70.418" y2="102.11" gradientUnits="userSpaceOnUse">
   <stop stop-color="#fff" offset="0"/>
   <stop stop-color="#fff" stop-opacity="0" offset="1"/>
  </linearGradient>
  <linearGradient id="b" x1="329.31" x2="234.36" y1="164.44" y2="103.83" gradientUnits="userSpaceOnUse">
   <stop stop-color="#000080" offset="0"/>
   <stop stop-color="#59a5f0" stop-opacity="0" offset="1"/>
  </linearGradient>
  <linearGradient id="a" x1="255.71" x2="258.57" y1="75.219" y2="154.5" gradientUnits="userSpaceOnUse">
   <stop stop-color="#75c9ff" offset="0"/>
   <stop stop-color="#78a8ff" offset="1"/>
  </linearGradient>
 </defs>
 <g transform="translate(-105.47 -64.31)">
  <path d="m222.97 71.183h92.883c15.684 0 28.31 12.626 28.31 28.31v46.416c0 15.684-12.626 28.31-28.31 28.31h-121.17s-16.419-1.1407-34.099-8.4033-26.018-22.04-26.018-22.04 18.178 4.836 36.864-1.3323 23.227-15.474 23.227-15.474v-27.475c0-15.684 12.626-28.31 28.31-28.31z" fill="#333"/>
  <path d="m217.91 64.31h92.883c15.684 0 28.31 12.626 28.31 28.31v46.416c0 15.684-12.626 28.31-28.31 28.31h-121.17s-16.419-1.1407-34.099-8.4033-26.018-22.04-26.018-22.04 18.178 4.836 36.864-1.3323 23.227-15.474 23.227-15.474v-27.475c0-15.684 12.626-28.31 28.31-28.31z" fill="url(#a)"/>
  <path d="m219.43 66.098c-15.194 0-27.429 12.235-27.429 27.429v26.612s-4.3917 9.0103-22.494 14.986c-0.3041 0.1004-0.6045 0.2083-0.9083 0.3028 1.5269-0.3594 3.056-0.7915 4.6018-1.3018 17.467-5.7659 21.707-14.472 21.707-14.472v-25.673c0-14.661 11.8-26.491 26.46-26.491h86.829c14.661 0 26.46 11.83 26.46 26.491v43.384c0 14.661-11.8 26.46-26.46 26.46h-113.26s-15.353-1.0826-31.88-7.8715c-12.507-5.1378-19.977-14.255-22.888-18.407-3.9532-0.5054-6.388-1.1202-6.388-1.1202s8.0909 14.308 25.219 21.344 33.03 8.144 33.03 8.144h117.38c15.194 0 27.429-12.235 27.429-27.429v-44.958c0-15.194-12.235-27.429-27.429-27.429h-89.978z" fill="url(#b)" opacity=".234"/>
  <path d="m197 95.367s0.6743-13.486 10.452-20.229 15.172-4.7202 15.172-4.7202l87.66-1.0115s8.0917 2.0229 13.149 6.406 3.3716 40.122 3.3716 40.122-26.298-21.578-63.722-24.275-66.082 3.7087-66.082 3.7087z" fill="url(#c)"/>
 </g>
</svg>
